<?xml version="1.0"?>
<svg xmlns="http://www.w3.org/2000/svg" xmlns:xlink="http://www.w3.org/1999/xlink" version="1.1" id="Capa_1" x="0px" y="0px" viewBox="0 0 512 512" style="enable-background:new 0 0 512 512;" xml:space="preserve" width="512px" height="512px" class=""><g><g>
	<g>
		<path d="M135,0c-33.382,0-60,28.037-60,61c0,33.084,26.916,60,60,60s60-26.916,60-60C195,27.98,168.322,0,135,0z M135,91    c-16.542,0-30-13.458-30-30c0-16.804,13.738-31,30-31s30,14.196,30,31C165,77.542,151.542,91,135,91z" data-original="#EFF4FD" class="active-path" data-old_color="#a2bff4" fill="#a2bff4"/>
	</g>
</g><g>
	<g>
		<path d="M195,121h-60H75c-41.355,0-75,33.645-75,75v90c0,24.813,20.187,45,45,45c5.257,0,10.307-0.906,15-2.57V467    c0,24.813,20.187,45,45,45c11.515,0,22.033-4.347,30-11.486c7.967,7.139,18.485,11.486,30,11.486c24.813,0,45-20.187,45-45V328.43    c4.693,1.664,9.743,2.57,15,2.57c24.813,0,45-20.187,45-45v-90C270,154.645,236.355,121,195,121z M240,286c0,8.271-6.729,15-15,15    s-15-6.729-15-15v-90c0-8.284-6.716-15-15-15s-15,6.716-15,15c0,10.43,0,259.207,0,271c0,8.271-6.729,15-15,15s-15-6.729-15-15    V316c0-8.284-6.716-15-15-15s-15,6.716-15,15v151c0,8.271-6.729,15-15,15s-15-6.729-15-15c0-11.832,0-260.58,0-271    c0-8.284-6.716-15-15-15s-15,6.716-15,15v90c0,8.271-6.729,15-15,15s-15-6.729-15-15v-90c0-24.813,20.187-45,45-45h120    c24.813,0,45,20.187,45,45V286z" data-original="#EFF4FD" class="active-path" data-old_color="#a2bff4" fill="#a2bff4"/>
	</g>
</g><g>
	<g>
		<path d="M375,151h122c8.284,0,15-6.716,15-15V15c0-8.284-6.716-15-15-15H375c-8.284,0-15,6.716-15,15v46h-45    c-8.284,0-15,6.716-15,15v360c0,8.284,6.716,15,15,15h45v46c0,8.284,6.716,15,15,15h122c8.284,0,15-6.716,15-15V376    c0-8.284-6.716-15-15-15H375c-8.284,0-15,6.716-15,15v45h-30V271h30v45c0,8.284,6.716,15,15,15h122c8.284,0,15-6.716,15-15V196    c0-8.284-6.716-15-15-15H375c-8.284,0-15,6.716-15,15v45h-30V91h30v45C360,144.284,366.716,151,375,151z M390,30h92v91h-92V30z     M390,391h92v91h-92V391z M390,211h92v90h-92V211z" data-original="#EFF4FD" class="active-path" data-old_color="#a2bff4" fill="#a2bff4"/>
	</g>
</g></g> </svg>
