<?xml version="1.0"?>
<svg xmlns="http://www.w3.org/2000/svg" xmlns:xlink="http://www.w3.org/1999/xlink" version="1.1" id="Capa_1" x="0px" y="0px" viewBox="0 0 512 512" style="enable-background:new 0 0 512 512;" xml:space="preserve" width="512px" height="512px"><g><g>
	<g>
		<path d="M255.994,0.01c-33.083,0-59.999,26.915-59.999,59.999c0,33.083,26.915,59.999,59.999,59.999    c33.083,0,59.999-26.915,59.999-59.999C315.993,26.926,289.078,0.01,255.994,0.01z M255.994,90.008    c-16.542,0-29.999-13.458-29.999-29.999c0-16.542,13.458-29.999,29.999-29.999s29.999,13.458,29.999,29.999    C285.994,76.551,272.536,90.008,255.994,90.008z" data-original="#EFF4FD" class="active-path" data-old_color="#a2bff4" fill="#a2bff4"/>
	</g>
</g><g>
	<g>
		<path d="M465.991,270.005c-2.961,0-132.288,0-134.997,0v-56.364L467.807,76.827c17.59-17.589,17.592-46.043,0-63.634    c-17.59-17.59-46.042-17.592-63.634,0L297.359,120.008h-41.364H196c-14.09,0-27.547,6.729-35.999,18    c-0.167,0.222-0.327,0.448-0.48,0.679l-59.788,89.682c-9.174,12.482-10.952,28.035-6.178,41.636c-9.217,0-36.525,0-47.555,0    c-8.284,0-15,6.716-15,15c0,8.284,6.716,15,15,15h15c0,2.428,0,195.116,0,196.996c0,8.284,6.716,15,15,15s15-6.716,15-15V360.003    h89.998v106.998c0,24.813,20.187,44.999,44.999,44.999c11.515,0,22.033-4.347,29.999-11.486    C263.962,507.653,274.48,512,285.995,512c24.813,0,44.999-20.187,44.999-44.999V360.003h89.998v136.997c0,8.284,6.716,15,15,15    c8.284,0,15-6.716,15-15c0-1.913,0-194.707,0-196.996h15c8.284,0,15-6.716,15-15C480.991,276.721,474.275,270.005,465.991,270.005    z M124.001,246.005c0.167-0.223,0.328-0.45,0.482-0.682l59.727-89.588c2.826-3.593,7.208-5.728,11.79-5.728h107.572    c3.979,0,7.794-1.581,10.606-4.394l111.21-111.208c5.847-5.846,15.36-5.848,21.209,0c5.866,5.868,5.865,15.342,0,21.209    L305.388,196.822c-2.813,2.813-4.394,6.628-4.394,10.606v62.577h-32.569c1.664-4.693,2.57-9.743,2.57-15    c0-24.813-20.187-44.999-44.999-44.999h-29.999c-8.284,0-15,6.716-15,15s6.716,15,15,15h29.999c8.271,0,15,6.729,15,15    c0,8.271-6.729,15-15,15h-90.027c-3.251,0-6.353-1.038-8.98-3.01C120.404,262.065,118.991,252.682,124.001,246.005z     M240.995,467.001c0,8.271-6.729,15-15,15c-8.271,0-15-6.729-15-15V360.003h29.999V467.001z M300.994,467.001    c0,8.271-6.729,15-15,15c-8.271,0-15-6.729-15-15V360.003h29.999V467.001z M420.991,330.004H90.998v-29.999    c12.345,0,298.637,0,329.994,0V330.004z" data-original="#EFF4FD" class="active-path" data-old_color="#a2bff4" fill="#a2bff4"/>
	</g>
</g></g> </svg>
