<?xml version="1.0"?>
<svg xmlns="http://www.w3.org/2000/svg" xmlns:xlink="http://www.w3.org/1999/xlink" version="1.1" id="Capa_1" x="0px" y="0px" viewBox="0 0 512 512" style="enable-background:new 0 0 512 512;" xml:space="preserve" width="512px" height="512px" class=""><g><g>
	<g>
		<path d="M467,0H285c-24.813,0-45,20.187-45,45v71.365L236.365,120c-9.36,0-61.167,0-71.365,0h-60c-41.355,0-75,33.645-75,75v45H15    c-8.284,0-15,6.716-15,15v60c0,8.284,6.716,15,15,15h17.271L60.2,499.44C61.394,506.685,67.657,512,75,512h150    c7.343,0,13.606-5.315,14.8-12.56L267.729,330H285c8.284,0,15-6.716,15-15v-60c0-8.284-6.716-15-15-15h-45v-30h15    c12.017,0,23.314-4.68,31.812-13.177L303.635,180H467c24.813,0,45-20.187,45-45V45C512,20.187,491.813,0,467,0z M212.271,482    H87.729L62.675,330h174.651L212.271,482z M270,270v30H30v-30H270z M325.604,115.605l-60.006,60.005    c-2.831,2.831-6.595,4.39-10.599,4.39h-30c-8.284,0-15,6.716-15,15v45h-90v-45c0-8.284-6.716-15-15-15s-15,6.716-15,15v45H60v-45    c0-24.813,20.187-45,45-45c4.76,0,131.71,0,137.578,0c3.979,0,7.794-1.58,10.606-4.393l12.42-12.42    c0.001-0.001,0.003-0.003,0.004-0.004l38.787-38.787c5.866-5.865,15.342-5.866,21.209,0    C331.47,100.263,331.469,109.739,325.604,115.605z M482,135c0,8.271-6.729,15-15,15H333.635l13.183-13.182    c17.544-17.544,17.544-46.091,0-63.635c-17.59-17.59-46.043-17.591-63.635,0L270,86.365V45c0-8.271,6.729-15,15-15h182    c8.271,0,15,6.729,15,15V135z" data-original="#EFF4FD" class="active-path" data-old_color="#a2bff4" fill="#a2bff4"/>
	</g>
</g><g>
	<g>
		<path d="M165,0c-33.084,0-60,26.916-60,60s26.916,60,60,60s60-26.916,60-60S198.084,0,165,0z M165,90c-16.542,0-30-13.458-30-30    s13.458-30,30-30s30,13.458,30,30S181.542,90,165,90z" data-original="#EFF4FD" class="active-path" data-old_color="#a2bff4" fill="#a2bff4"/>
	</g>
</g></g> </svg>
